<svg class="svg-icon" style="width: 1em; height: 1em;vertical-align: middle;fill: currentColor;overflow: hidden;" viewBox="0 0 1024 1024" version="1.1" xmlns="http://www.w3.org/2000/svg"><path d="M768 192 256 192C217.6 192 192 217.6 192 256l0 576c0 38.4 25.6 64 64 64l512 0c38.4 0 64-25.6 64-64L832 256C832 217.6 806.4 192 768 192zM800 819.2c0 25.6-19.2 51.2-51.2 51.2L268.8 870.4c-25.6 0-51.2-19.2-51.2-51.2L217.6 268.8c0-25.6 19.2-51.2 51.2-51.2l480 0c25.6 0 51.2 19.2 51.2 51.2L800 819.2z"  /><path d="M704 192 320 192l0 0c0-38.4 25.6-64 64-64l256 0C678.4 128 704 153.6 704 192L704 192z"  /><path d="M684.8 326.4 537.6 326.4c-6.4 0-19.2-6.4-19.2-19.2l0 0c0-6.4 6.4-19.2 19.2-19.2l147.2 0c6.4 0 19.2 6.4 19.2 19.2l0 0C704 313.6 697.6 326.4 684.8 326.4z"  /><path d="M684.8 403.2 537.6 403.2C531.2 403.2 524.8 390.4 524.8 384l0 0c0-6.4 6.4-19.2 19.2-19.2l147.2 0C697.6 364.8 704 371.2 704 384l0 0C704 390.4 697.6 403.2 684.8 403.2z"  /><path d="M684.8 486.4 537.6 486.4c-6.4 0-19.2-6.4-19.2-19.2l0 0C524.8 460.8 531.2 448 537.6 448l147.2 0C697.6 448 704 460.8 704 467.2l0 0C704 480 697.6 486.4 684.8 486.4z"  /><path d="M684.8 569.6 537.6 569.6c-6.4 0-19.2-6.4-19.2-19.2l0 0c0-6.4 6.4-19.2 19.2-19.2l147.2 0c6.4 0 19.2 6.4 19.2 19.2l0 0C704 563.2 697.6 569.6 684.8 569.6z"  /><path d="M684.8 646.4 339.2 646.4C326.4 646.4 320 640 320 633.6l0 0c0-6.4 6.4-19.2 19.2-19.2l345.6 0c6.4 0 19.2 6.4 19.2 19.2l0 0C697.6 640 691.2 646.4 684.8 646.4z"  /><path d="M684.8 729.6 339.2 729.6c-6.4 0-19.2-6.4-19.2-19.2l0 0c0-6.4 6.4-19.2 19.2-19.2l345.6 0c6.4 0 19.2 6.4 19.2 19.2l0 0C697.6 716.8 691.2 729.6 684.8 729.6z"  /><path d="M684.8 800 339.2 800c-6.4 0-19.2-6.4-19.2-19.2l0 0c0-6.4 6.4-19.2 19.2-19.2l345.6 0c6.4 0 19.2 6.4 19.2 19.2l0 0C697.6 793.6 691.2 800 684.8 800z"  /><path d="M326.4 480C345.6 492.8 364.8 499.2 384 499.2c12.8 0 19.2 0 25.6-6.4 6.4-6.4 6.4-6.4 6.4-12.8 0-6.4 0-12.8-6.4-12.8C409.6 460.8 396.8 454.4 377.6 441.6 345.6 428.8 326.4 409.6 326.4 384c0-19.2 6.4-32 19.2-44.8C364.8 326.4 384 320 403.2 320c19.2 0 38.4 0 51.2 6.4l0 38.4C441.6 364.8 428.8 358.4 409.6 358.4c-12.8 0-19.2 0-25.6 6.4C377.6 364.8 371.2 371.2 371.2 377.6c0 6.4 0 12.8 6.4 12.8C384 396.8 396.8 403.2 409.6 409.6 428.8 422.4 448 428.8 454.4 441.6 460.8 448 467.2 460.8 467.2 473.6c0 19.2-6.4 32-19.2 44.8C428.8 531.2 409.6 537.6 384 537.6c-25.6 0-44.8-6.4-57.6-12.8L326.4 480z"  /><path d="M377.6 288l38.4 0 0 51.2-38.4 0 0-51.2Z"  /><path d="M377.6 524.8l38.4 0 0 51.2-38.4 0 0-51.2Z"  /></svg>