<svg class="svg-icon" style="width: 1em; height: 1em;vertical-align: middle;fill: currentColor;overflow: hidden;" viewBox="0 0 1024 1024" version="1.1" xmlns="http://www.w3.org/2000/svg"><path d="M894.914 366.94v500h-750v-500h750m0-83.334h-750c-46.021 0-83.333 37.313-83.333 83.334v500c0 46.021 37.313 83.333 83.333 83.333h750c46.021 0 83.334-37.313 83.334-83.333v-500c0-46.02-37.312-83.334-83.334-83.334z"  /><path d="M894.914 575.273v83.332H686.58c-22.979 0-41.667-18.695-41.667-41.665s18.688-41.667 41.667-41.667h208.334m83.334-83.333H686.58c-69.03 0-125 55.969-125 125s55.97 125 125 125h291.668v-250zM728.248 158.708v8.26l1.616 8.077 21.729 108.663H144.914v-125h583.334m0-83.333H144.914c-46.021 0-83.333 37.313-83.333 83.333v208.333h791.667L811.58 158.708c0-46.02-37.312-83.333-83.332-83.333z"  /></svg>